<?xml version="1.0" encoding="UTF-8"?>
<svg width="345px" height="50px" viewBox="0 0 345 50" version="1.1" xmlns="http://www.w3.org/2000/svg" xmlns:xlink="http://www.w3.org/1999/xlink">
    <!-- Generator: Sketch 64 (93537) - https://sketch.com -->
    <title>Logo</title>
    <desc>Created with Sketch.</desc>
    <defs>
        <polygon id="path-1" points="0.926322261 0 344.948985 0 344.948985 49.8441926 0.926322261 49.8441926"></polygon>
    </defs>
    <g id="Symbols" stroke="none" stroke-width="1" fill="none" fill-rule="evenodd">
        <g id="Brand-Graphics/Offspring-Logo">
            <g id="Logo" transform="translate(0.000000, 0.000000)">
                <mask id="mask-2" fill="white">
                    <use xlink:href="#path-1"></use>
                </mask>
                <g id="Clip-2"></g>
                <path d="M19.3659817,39.0535122 C17.9310803,38.2745413 16.7277559,37.2055281 15.757651,35.8464725 C14.7859036,34.4879693 14.0577774,32.873124 13.5727249,31.002489 C13.0865774,29.1313014 12.8440512,27.1048722 12.8440512,24.9220963 C12.8440512,22.7398729 13.0865774,20.7128912 13.5727249,18.8417037 C14.0577774,16.9710686 14.7859036,15.3457265 15.757651,13.9645725 C16.7277559,12.5845233 17.9310803,11.5039084 19.3659817,10.7238326 C20.7997881,9.94486169 22.4662664,9.55482379 24.3648692,9.55482379 C26.2623771,9.55482379 27.9288554,9.94486169 29.3637567,10.7238326 C30.7975632,11.5039084 32.0008875,12.5845233 32.9720875,13.9645725 C33.9427399,15.3457265 34.6604643,16.9710686 35.1241657,18.8417037 C35.5878672,20.7128912 35.8194442,22.7398729 35.8194442,24.9220963 C35.8194442,27.1048722 35.5878672,29.1313014 35.1241657,31.002489 C34.6604643,32.873124 33.9427399,34.4879693 32.9720875,35.8464725 C32.0008875,37.2055281 30.7975632,38.2745413 29.3637567,39.0535122 C27.9288554,39.833588 26.2623771,40.222521 24.3648692,40.222521 C22.4662664,40.222521 20.7997881,39.833588 19.3659817,39.0535122 L19.3659817,39.0535122 Z M33.9985812,47.9735576 C36.8891875,46.7266517 39.3500351,44.9897123 41.381124,42.7616346 C43.4105705,40.5352143 44.977958,37.8955526 46.0821915,34.8443071 C47.1847826,31.793614 47.7371731,28.4860263 47.7371731,24.9220963 C47.7371731,21.3587188 47.1847826,18.0516836 46.0821915,14.9998856 C44.977958,11.9497449 43.4105705,9.31008329 41.381124,7.08255802 C39.3500351,4.85558521 36.8891875,3.11864587 33.9985812,1.87063506 C31.1068799,0.624281635 27.8741091,0 24.2986261,0 C20.7231432,0 17.4892774,0.624281635 14.5986711,1.87063506 C11.7075173,3.11864587 9.257619,4.85558521 7.24952356,7.08255802 C5.24033319,9.31008329 3.68444245,11.9497449 2.58130387,14.9998856 C1.47761782,18.0516836 0.926322261,21.3587188 0.926322261,24.9220963 C0.926322261,28.4860263 1.47761782,31.793614 2.58130387,34.8443071 C3.68444245,37.8955526 5.24033319,40.5352143 7.24952356,42.7616346 C9.257619,44.9897123 11.7075173,46.7266517 14.5986711,47.9735576 C17.4892774,49.219911 20.7231432,49.8441926 24.2986261,49.8441926 C27.8741091,49.8441926 31.1068799,49.219911 33.9985812,47.9735576 L33.9985812,47.9735576 Z M49.3253642,48.708884 L61.0449114,48.708884 L61.0449114,30.1334668 L80.7092462,30.1334668 L80.7092462,20.5791955 L61.0449114,20.5791955 L61.0449114,10.890676 L84.5497014,10.890676 L84.5497014,0.935317529 L49.3253642,0.935317529 L49.3253642,48.708884 Z M86.203588,48.708884 L97.9231352,48.708884 L97.9231352,30.1334668 L117.58747,30.1334668 L117.58747,20.5791955 L97.9231352,20.5791955 L97.9231352,10.890676 L121.427925,10.890676 L121.427925,0.935317529 L86.203588,0.935317529 L86.203588,48.708884 Z M149.599293,48.8083271 C151.959954,48.1183025 154.012394,47.1161371 155.756612,45.8018309 C157.499736,44.4886297 158.868394,42.8627351 159.86204,40.9241473 C160.855138,38.9866643 161.351688,36.7712932 161.351688,34.276929 C161.351688,31.7372629 160.887986,29.6218874 159.961131,27.9285925 C159.034275,26.2364025 157.798103,24.83315 156.253162,23.7193874 C154.707673,22.6067297 152.931154,21.7150566 150.923606,21.046578 C148.914416,20.3786519 146.806682,19.7775737 144.600405,19.2427908 C142.834288,18.8417037 141.278398,18.4743167 139.932185,18.1400774 C138.585426,17.8063906 137.471338,17.4390036 136.588827,17.0379165 C135.705221,16.6368293 135.032936,16.15895 134.569235,15.6015163 C134.106081,15.0451874 133.873956,14.3435611 133.873956,13.4966375 C133.873956,12.1602328 134.491495,11.0807228 135.728215,10.2558976 C136.963292,9.43217731 138.618273,9.02004093 140.693707,9.02004093 C142.900531,9.02004093 144.666648,9.51062686 145.990414,10.4901413 C147.314728,11.4702082 148.086651,12.8955592 148.307827,14.7661943 L159.762402,14.7661943 C159.629915,12.2718301 159.067123,10.1006559 158.074025,8.25156682 C157.080926,6.40358268 155.756612,4.87768368 154.101631,3.67497472 C152.446102,2.47226577 150.503154,1.57009594 148.274979,0.969017688 C146.045708,0.36738698 143.650556,0.0668478565 141.091165,0.0668478565 C138.442538,0.0668478565 135.970193,0.356890209 133.675227,0.935317529 C131.379713,1.51484977 129.393516,2.40541791 127.716636,3.60812687 C126.038661,4.81083582 124.714348,6.33728729 123.743695,8.18471896 C122.772495,10.033808 122.287443,12.2270807 122.287443,14.7661943 C122.287443,17.261111 122.783992,19.3328421 123.77709,20.9797302 C124.770189,22.6282757 126.061107,23.9873312 127.650393,25.055792 C129.239132,26.1248053 131.037549,26.9711765 133.046192,27.5949057 C135.054287,28.2191873 137.095778,28.7755161 139.170664,29.2649971 C140.803199,29.6660843 142.259999,30.0334713 143.541063,30.3677105 C144.820485,30.7013974 145.901725,31.0919877 146.785331,31.5372718 C147.667842,31.9825559 148.341222,32.5173387 148.804376,33.1405154 C149.268077,33.7647971 149.499654,34.5432155 149.499654,35.4790855 C149.499654,36.3702061 149.278479,37.1386802 148.837771,37.7839554 C148.395968,38.4303355 147.821679,38.9535166 147.115999,39.3540513 C146.409771,39.7556909 145.603905,40.0451808 144.699496,40.222521 C143.794539,40.4015186 142.856187,40.4899124 141.885534,40.4899124 C139.060076,40.4899124 136.87515,39.955682 135.330756,38.8866688 C133.785267,37.8176555 132.880858,36.0801637 132.615886,33.6747458 L120.830643,33.6747458 C120.873892,36.3039107 121.415334,38.6308791 122.452777,40.6573083 C123.489125,42.68429 124.924026,44.3770324 126.756386,45.7349831 C128.58765,47.0945911 130.795023,48.1183025 133.377407,48.8083271 C135.959792,49.4983517 138.817003,49.8441926 141.951777,49.8441926 C144.687999,49.8441926 147.236988,49.4983517 149.599293,48.8083271 L149.599293,48.8083271 Z M162.476177,48.708884 L174.393906,48.708884 L174.393906,32.7394283 L185.45157,32.7394283 C187.878475,32.7394283 190.085847,32.3499429 192.072592,31.5704195 C194.058788,30.7914486 195.747165,29.7108337 197.137722,28.3296796 C198.527731,26.9496305 199.597475,25.301085 200.348594,23.3851481 C201.098619,21.4708686 201.474179,19.3764865 201.474179,17.1047643 C201.474179,14.6993464 201.065771,12.4944721 200.249504,10.4901413 C199.432141,8.48581054 198.25181,6.77152212 196.707416,5.34506621 C195.250616,3.92026768 193.462601,2.82915598 191.343918,2.07117863 C189.225235,1.3143062 186.709093,0.935317529 183.796041,0.935317529 L162.476177,0.935317529 L162.476177,48.708884 Z M174.393906,23.3851481 L174.393906,10.890676 L183.067915,10.890676 C185.186598,10.890676 186.819134,11.4370605 187.967164,12.5276198 C189.114647,13.6198364 189.688936,15.1230845 189.688936,17.0379165 C189.688936,18.9538534 189.114647,20.4902492 187.967164,21.6482087 C186.819134,22.8067208 185.186598,23.3851481 183.067915,23.3851481 L174.393906,23.3851481 Z M202.797945,48.708884 L214.516945,48.708884 L214.516945,30.8019454 L221.601668,30.8019454 C224.117809,30.8019454 225.981922,31.3814776 227.196195,32.5388847 C228.409922,33.6979492 229.171443,35.3901392 229.48076,37.617112 C229.656496,38.8198209 229.788982,40.0335791 229.878218,41.2583865 C229.965812,42.4842989 230.065451,43.62016 230.176038,44.6659698 C230.285531,45.7128846 230.418017,46.6034527 230.572949,47.3387792 C230.727334,48.0735531 230.958911,48.5309914 231.268228,48.708884 L242.65656,48.708884 L242.65656,48.1072533 C242.259649,47.9735576 241.971683,47.5172243 241.795947,46.7371485 C241.619117,45.95873 241.487178,44.9781107 241.398489,43.7975002 C241.3098,42.6174421 241.233155,41.2815899 241.167459,39.7882862 C241.100669,38.2966398 240.935335,36.7712932 240.670363,35.2116941 C240.316701,32.8062762 239.599524,30.9251443 238.518284,29.5655363 C237.436497,28.2075856 235.858708,27.17172 233.784369,26.4590446 L233.784369,26.258501 C236.565483,25.2789865 238.628324,23.8094386 239.975084,21.8487523 C241.321296,19.8891709 241.994676,17.5058515 241.994676,14.6993464 C241.994676,12.4723736 241.574772,10.501743 240.736606,8.78634967 C239.897344,7.07206125 238.738912,5.63566103 237.260761,4.47659654 C235.780968,3.31863697 234.026348,2.43856561 231.997449,1.83748736 C229.965812,1.23585665 227.780886,0.935317529 225.442123,0.935317529 L202.797945,0.935317529 L202.797945,48.708884 Z M214.516945,22.0492959 L214.516945,10.2895977 L223.587865,10.2895977 C225.839581,10.2895977 227.527411,10.8470315 228.652995,11.9596892 C229.77858,13.0740043 230.341372,14.4988029 230.341372,16.2362947 C230.341372,18.0632853 229.756134,19.4880838 228.586752,20.5123476 C227.416823,21.5377164 225.662203,22.0492959 223.322893,22.0492959 L214.516945,22.0492959 Z M243.781597,48.708884 L255.501144,48.708884 L255.501144,0.935317529 L243.781597,0.935317529 L243.781597,48.708884 Z M257.68388,48.708884 L269.138455,48.708884 L269.138455,26.4590446 C269.138455,26.0585099 269.126958,25.423179 269.105607,24.5547093 C269.082614,23.6862397 269.072212,22.8067208 269.072212,21.9156002 C269.027867,20.8913363 269.005969,19.8002246 269.005969,18.6417126 L269.138455,18.6417126 C269.623508,19.6217795 270.087209,20.5349986 270.529012,21.3808173 C270.881578,22.1387947 271.246189,22.8625194 271.621201,23.552544 C271.996214,24.2436734 272.294034,24.7447561 272.515209,25.055792 L286.419682,48.708884 L298.204925,48.708884 L298.204925,0.935317529 L286.75035,0.935317529 L286.75035,23.5856916 L286.75035,25.4568792 C286.75035,26.258501 286.772248,27.0833262 286.816593,27.9285925 C286.816593,28.9092119 286.838491,29.9334757 286.882836,31.002489 L286.75035,31.002489 C286.309094,30.1119208 285.867292,29.2649971 285.426584,28.4633753 C285.072375,27.7948968 284.708312,27.1269707 284.333847,26.4590446 C283.958287,25.790566 283.682365,25.2789865 283.506082,24.9220963 L269.46967,0.935317529 L257.68388,0.935317529 L257.68388,48.708884 Z M330.216747,48.2072488 C332.489815,47.1608865 334.398272,45.4123455 335.944309,42.9621782 L336.076247,42.9621782 L336.738678,48.708884 L344.948985,48.708884 L344.948985,23.0514613 L325.21786,23.0514613 L325.21786,31.7372629 L334.09005,31.7372629 L334.09005,31.8709586 C333.957564,32.9399719 333.637298,33.9758374 333.130347,34.9780028 C332.622301,35.9807206 331.938519,36.8718412 331.07736,37.6502597 C330.216747,38.4303355 329.179304,39.0535122 327.965578,39.5214472 C326.751305,39.9888297 325.372244,40.222521 323.827303,40.222521 C321.973592,40.222521 320.307114,39.8446372 318.828415,39.0872124 C317.34917,38.3297875 316.102596,37.2723759 315.087599,35.9133203 C314.072054,34.5548172 313.288634,32.9399719 312.737339,31.0693368 C312.184948,29.1981493 311.909574,27.17172 311.909574,24.9889442 C311.909574,22.8067208 312.151553,20.7907883 312.6377,18.9422517 C313.1233,17.0942676 313.851426,15.4904715 314.822626,14.1314159 C315.793279,12.7734652 317.017954,11.7038995 318.497748,10.9243762 C319.975899,10.1454053 321.686174,9.75481489 323.629121,9.75481489 C326.232857,9.75481489 328.307195,10.401195 329.852684,11.6928503 C331.397078,12.985058 332.390724,14.6104001 332.83198,16.5699815 L344.220311,16.5699815 C343.823401,14.0761697 343.08323,11.8044475 342.002538,9.75481489 C340.92075,7.70683965 339.496798,5.95829861 337.731776,4.5102967 C335.96566,3.06284724 333.868875,1.94908461 331.44197,1.1690088 C329.013423,0.390590368 326.277201,0 323.231663,0 C319.788666,0 316.720134,0.557433779 314.028257,1.67064395 C311.335285,2.78440658 308.996522,4.34290083 307.009777,6.3472316 C304.758608,8.61895379 303.025887,11.3481142 301.812708,14.532503 C300.597887,17.7174443 299.991845,21.2034771 299.991845,24.9889442 C299.991845,28.6418204 300.531644,32.0046543 301.613979,35.0779984 C302.694672,38.1513424 304.272461,40.8241517 306.347894,43.0958739 C308.334091,45.2344528 310.673402,46.8824459 313.366374,48.0409579 C316.058251,49.1978125 319.103789,49.7773448 322.503537,49.7773448 C325.372244,49.7773448 327.943132,49.2530587 330.216747,48.2072488 L330.216747,48.2072488 Z" id="Fill-1" fill="#C31735" mask="url(#mask-2)"></path>
            </g>
        </g>
    </g>
</svg>